<?xml version="1.0" encoding="utf-8"?>
<!-- Uploaded to: SVG Repo, www.svgrepo.com, Generator: SVG Repo Mixer Tools -->
<svg fill="#000000" width="800px" height="800px" viewBox="0 0 32 32" version="1.1" xmlns="http://www.w3.org/2000/svg">
<title>sun-alt</title>
<path d="M16 8.75c-4.004 0-7.25 3.246-7.25 7.25s3.246 7.25 7.25 7.25c4.004 0 7.25-3.246 7.25-7.25v0c-0.004-4.002-3.248-7.246-7.25-7.25h-0zM16 20.75c-2.623 0-4.75-2.127-4.75-4.75s2.127-4.75 4.75-4.75c2.623 0 4.75 2.127 4.75 4.75v0c-0.003 2.622-2.128 4.747-4.75 4.75h-0zM22.848 10.397c0.001 0 0.001 0 0.002 0 0.345 0 0.657-0.14 0.883-0.366l5.168-5.168c0.226-0.226 0.366-0.539 0.366-0.884 0-0.691-0.56-1.251-1.251-1.251-0.346 0-0.658 0.14-0.885 0.367v0l-5.168 5.168c-0.226 0.226-0.366 0.539-0.366 0.884 0 0.69 0.56 1.25 1.25 1.25 0 0 0.001 0 0.001 0h-0zM23.732 21.969c-0.226-0.226-0.539-0.366-0.884-0.366-0.691 0-1.251 0.56-1.251 1.251 0 0.345 0.14 0.658 0.366 0.884l5.152 5.152c0.226 0.226 0.539 0.366 0.884 0.366 0.691 0 1.251-0.56 1.251-1.251 0-0.345-0.14-0.658-0.366-0.884l0 0zM8.268 10.031c0.226 0.226 0.539 0.366 0.884 0.366 0.69 0 1.25-0.56 1.25-1.25 0-0.345-0.14-0.658-0.366-0.884v0l-5.151-5.152c-0.226-0.226-0.539-0.366-0.884-0.366-0.69 0-1.25 0.56-1.25 1.25 0 0.345 0.14 0.658 0.366 0.884v0zM16 24.434c-0.69 0-1.25 0.56-1.25 1.25v4.307c0 0.69 0.56 1.25 1.25 1.25s1.25-0.56 1.25-1.25v0-4.307c-0-0.69-0.56-1.25-1.25-1.25h-0zM16 7.558c0.69 0 1.25-0.56 1.25-1.25v0-4.308c0-0.69-0.56-1.25-1.25-1.25s-1.25 0.56-1.25 1.25v0 4.308c0 0.69 0.56 1.25 1.25 1.25v0zM29.996 14.75h-4.309c-0.69 0-1.25 0.56-1.25 1.25s0.56 1.25 1.25 1.25v0h4.309c0.69 0 1.25-0.56 1.25-1.25s-0.56-1.25-1.25-1.25v0zM7.563 16c0-0.69-0.56-1.25-1.25-1.25v0h-4.308c-0.69 0-1.25 0.56-1.25 1.25s0.56 1.25 1.25 1.25v0h4.308c0.69 0 1.25-0.56 1.25-1.25v0zM8.268 21.969l-5.151 5.152c-0.227 0.226-0.367 0.539-0.367 0.885 0 0.691 0.56 1.251 1.251 1.251 0.345 0 0.658-0.14 0.884-0.366v0l5.151-5.152c0.225-0.226 0.364-0.538 0.364-0.882 0-0.691-0.56-1.251-1.251-1.251-0.344 0-0.655 0.139-0.881 0.363l0-0zM20.861 24.473c-0.193-0.456-0.637-0.771-1.154-0.771-0.69 0-1.25 0.559-1.25 1.25 0 0.173 0.035 0.337 0.098 0.487l-0.003-0.008 0.436 1.049c0.194 0.455 0.637 0.768 1.153 0.768 0.69 0 1.25-0.559 1.25-1.25 0-0.172-0.035-0.335-0.097-0.484l0.003 0.008zM11.139 7.529c0.19 0.463 0.637 0.784 1.16 0.784 0.69 0 1.25-0.56 1.25-1.25 0-0.178-0.037-0.347-0.104-0.501l0.003 0.008-0.436-1.050c-0.196-0.45-0.637-0.758-1.149-0.758-0.69 0-1.25 0.56-1.25 1.25 0 0.168 0.033 0.329 0.094 0.476l-0.003-0.008zM25.432 13.452l1.047-0.434c0.457-0.193 0.772-0.637 0.772-1.155 0-0.691-0.56-1.25-1.25-1.25-0.173 0-0.337 0.035-0.487 0.098l0.008-0.003-1.047 0.434c-0.455 0.194-0.768 0.637-0.768 1.154 0 0.691 0.56 1.25 1.25 1.25 0.171 0 0.334-0.034 0.483-0.097l-0.008 0.003zM6.573 18.557l-1.052 0.436c-0.458 0.192-0.774 0.637-0.774 1.156 0 0.69 0.559 1.25 1.25 1.25 0.174 0 0.339-0.035 0.49-0.1l-0.008 0.003 1.052-0.436c0.458-0.192 0.774-0.637 0.774-1.156 0-0.69-0.559-1.25-1.25-1.25-0.174 0-0.339 0.035-0.49 0.1l0.008-0.003zM24.473 20.861l1.049 0.436c0.142 0.061 0.308 0.096 0.482 0.096 0.69 0 1.25-0.559 1.25-1.25 0-0.519-0.316-0.963-0.766-1.152l-0.008-0.003-1.049-0.436c-0.141-0.060-0.306-0.095-0.479-0.095-0.69 0-1.25 0.559-1.25 1.25 0 0.517 0.315 0.961 0.763 1.151l0.008 0.003zM7.529 11.139l-1.050-0.436c-0.145-0.064-0.314-0.101-0.492-0.101-0.69 0-1.25 0.56-1.25 1.25 0 0.522 0.32 0.969 0.774 1.156l0.008 0.003 1.050 0.436c0.138 0.057 0.298 0.090 0.466 0.090 0.69 0 1.25-0.56 1.25-1.25 0-0.512-0.308-0.953-0.749-1.146l-0.008-0.003zM19.232 8.207c0.141 0.060 0.305 0.095 0.477 0.095 0.518 0 0.962-0.315 1.152-0.763l0.003-0.008 0.436-1.052c0.061-0.142 0.096-0.308 0.096-0.481 0-0.69-0.559-1.25-1.25-1.25-0.519 0-0.963 0.316-1.152 0.766l-0.003 0.008-0.436 1.052c-0.060 0.142-0.095 0.306-0.095 0.479 0 0.518 0.315 0.962 0.763 1.152l0.008 0.003zM12.775 23.799c-0.141-0.060-0.306-0.095-0.478-0.095-0.518 0-0.962 0.314-1.152 0.763l-0.003 0.008-0.434 1.047c-0.060 0.141-0.095 0.306-0.095 0.479 0 0.691 0.56 1.25 1.25 1.25 0.518 0 0.962-0.315 1.152-0.764l0.003-0.008 0.434-1.047c0.060-0.141 0.095-0.306 0.095-0.478 0-0.518-0.315-0.962-0.764-1.152l-0.008-0.003z"></path>
</svg>